<?xml version="1.0" encoding="UTF-8"?>
<svg xmlns="http://www.w3.org/2000/svg" xmlns:xlink="http://www.w3.org/1999/xlink" width="24px" height="24px" viewBox="0 0 24 24" version="1.1">
<g id="surface1">
<path style=" stroke:none;fill-rule:nonzero;fill:rgb(0%,0%,0%);fill-opacity:1;" d="M 22.285156 20.144531 L 22.285156 9.855469 C 22 10.179688 21.691406 10.472656 21.363281 10.742188 C 18.96875 12.582031 17.066406 14.089844 15.65625 15.269531 C 15.199219 15.652344 14.832031 15.949219 14.542969 16.164062 C 14.257812 16.378906 13.871094 16.597656 13.386719 16.816406 C 12.898438 17.035156 12.441406 17.144531 12.011719 17.144531 L 11.988281 17.144531 C 11.558594 17.144531 11.101562 17.035156 10.613281 16.816406 C 10.128906 16.597656 9.742188 16.378906 9.457031 16.164062 C 9.167969 15.949219 8.800781 15.652344 8.34375 15.269531 C 6.933594 14.089844 5.03125 12.582031 2.636719 10.742188 C 2.308594 10.472656 2 10.179688 1.714844 9.855469 L 1.714844 20.144531 C 1.714844 20.257812 1.757812 20.359375 1.839844 20.445312 C 1.925781 20.527344 2.027344 20.570312 2.144531 20.570312 L 21.855469 20.570312 C 21.972656 20.570312 22.074219 20.527344 22.160156 20.445312 C 22.242188 20.359375 22.285156 20.257812 22.285156 20.144531 Z M 22.285156 6.066406 L 22.285156 5.738281 L 22.277344 5.566406 L 22.238281 5.398438 L 22.164062 5.277344 L 22.042969 5.175781 L 21.855469 5.144531 L 2.144531 5.144531 C 2.027344 5.144531 1.925781 5.183594 1.839844 5.269531 C 1.757812 5.355469 1.714844 5.457031 1.714844 5.570312 C 1.714844 7.070312 2.371094 8.339844 3.683594 9.375 C 5.40625 10.730469 7.195312 12.148438 9.054688 13.621094 C 9.105469 13.664062 9.261719 13.796875 9.523438 14.015625 C 9.78125 14.234375 9.988281 14.402344 10.136719 14.519531 C 10.289062 14.632812 10.488281 14.773438 10.734375 14.941406 C 10.980469 15.105469 11.207031 15.226562 11.410156 15.308594 C 11.617188 15.386719 11.808594 15.429688 11.988281 15.429688 L 12.011719 15.429688 C 12.191406 15.429688 12.382812 15.386719 12.589844 15.308594 C 12.792969 15.226562 13.019531 15.105469 13.265625 14.941406 C 13.511719 14.773438 13.710938 14.632812 13.863281 14.519531 C 14.011719 14.402344 14.21875 14.234375 14.476562 14.015625 C 14.738281 13.796875 14.894531 13.664062 14.945312 13.621094 C 16.804688 12.148438 18.59375 10.730469 20.316406 9.375 C 20.800781 8.992188 21.246094 8.476562 21.664062 7.828125 C 22.078125 7.179688 22.285156 6.59375 22.285156 6.066406 Z M 24 5.570312 L 24 20.144531 C 24 20.730469 23.789062 21.238281 23.371094 21.65625 C 22.949219 22.074219 22.445312 22.285156 21.855469 22.285156 L 2.144531 22.285156 C 1.554688 22.285156 1.050781 22.074219 0.628906 21.65625 C 0.210938 21.238281 0 20.730469 0 20.144531 L 0 5.570312 C 0 4.980469 0.210938 4.476562 0.628906 4.058594 C 1.050781 3.636719 1.554688 3.429688 2.144531 3.429688 L 21.855469 3.429688 C 22.445312 3.429688 22.949219 3.636719 23.371094 4.058594 C 23.789062 4.476562 24 4.980469 24 5.570312 Z M 24 5.570312 "/>
</g>
</svg>
