<?xml version="1.0" encoding="UTF-8"?>
<svg xmlns="http://www.w3.org/2000/svg" xmlns:xlink="http://www.w3.org/1999/xlink" width="24px" height="24px" viewBox="0 0 24 24" version="1.1">
<g id="surface1">
<path style=" stroke:none;fill-rule:nonzero;fill:rgb(0%,0%,0%);fill-opacity:1;" d="M 24 9.507812 L 24 20.144531 C 24 20.730469 23.789062 21.238281 23.371094 21.65625 C 22.949219 22.074219 22.445312 22.285156 21.855469 22.285156 L 2.144531 22.285156 C 1.554688 22.285156 1.050781 22.074219 0.628906 21.65625 C 0.210938 21.238281 0 20.730469 0 20.144531 L 0 9.507812 C 0.394531 9.945312 0.84375 10.335938 1.351562 10.675781 C 4.585938 12.871094 6.804688 14.410156 8.007812 15.292969 C 8.519531 15.667969 8.929688 15.960938 9.246094 16.171875 C 9.566406 16.382812 9.988281 16.597656 10.511719 16.816406 C 11.039062 17.035156 11.53125 17.144531 11.988281 17.144531 L 12.011719 17.144531 C 12.46875 17.144531 12.960938 17.035156 13.488281 16.816406 C 14.011719 16.597656 14.433594 16.382812 14.753906 16.171875 C 15.070312 15.960938 15.480469 15.667969 15.992188 15.292969 C 17.507812 14.195312 19.730469 12.65625 22.660156 10.675781 C 23.167969 10.324219 23.617188 9.9375 24 9.507812 Z M 24 5.570312 C 24 6.277344 23.78125 6.949219 23.34375 7.59375 C 22.90625 8.238281 22.363281 8.785156 21.710938 9.242188 C 18.351562 11.570312 16.261719 13.023438 15.441406 13.59375 C 15.351562 13.65625 15.164062 13.792969 14.871094 14.003906 C 14.582031 14.210938 14.339844 14.382812 14.148438 14.511719 C 13.957031 14.640625 13.726562 14.785156 13.453125 14.945312 C 13.179688 15.105469 12.925781 15.226562 12.683594 15.308594 C 12.441406 15.386719 12.21875 15.429688 12.011719 15.429688 L 11.988281 15.429688 C 11.78125 15.429688 11.558594 15.386719 11.316406 15.308594 C 11.074219 15.226562 10.820312 15.105469 10.546875 14.945312 C 10.273438 14.785156 10.042969 14.640625 9.851562 14.511719 C 9.660156 14.382812 9.417969 14.210938 9.128906 14.003906 C 8.835938 13.792969 8.648438 13.65625 8.558594 13.59375 C 7.746094 13.023438 6.574219 12.207031 5.050781 11.148438 C 3.523438 10.089844 2.605469 9.457031 2.304688 9.242188 C 1.75 8.867188 1.226562 8.351562 0.738281 7.695312 C 0.246094 7.039062 0 6.429688 0 5.867188 C 0 5.167969 0.183594 4.589844 0.554688 4.125 C 0.925781 3.660156 1.457031 3.429688 2.144531 3.429688 L 21.855469 3.429688 C 22.4375 3.429688 22.941406 3.636719 23.363281 4.058594 C 23.789062 4.476562 24 4.980469 24 5.570312 Z M 24 5.570312 "/>
</g>
</svg>
